<?xml version="1.0" standalone="no"?>
<!DOCTYPE svg PUBLIC "-//W3C//DTD SVG 20010904//EN"
 "http://www.w3.org/TR/2001/REC-SVG-20010904/DTD/svg10.dtd">
<svg version="1.0" xmlns="http://www.w3.org/2000/svg"
 width="2552.000000pt" height="2552.000000pt" viewBox="0 0 2552.000000 2552.000000"
 preserveAspectRatio="xMidYMid meet">
<metadata>
Created by potrace 1.14, written by Peter Selinger 2001-2017
</metadata>
<g transform="translate(0.000000,2552.000000) scale(0.100000,-0.100000)"
fill="#000000" stroke="none">
<path d="M4781 19586 c-1097 -936 -1994 -1706 -1994 -1710 0 -4 700 -963 1555
-2129 855 -1167 3102 -4234 4993 -6815 1891 -2580 3441 -4692 3445 -4692 4 0
822 1115 1817 2477 996 1363 3233 4427 4973 6808 1739 2382 3166 4335 3171
4341 6 8 -633 560 -1991 1718 l-2000 1706 -5988 -1 -5987 -1 -1994 -1702z
m10363 1008 l3249 -6 1588 -1355 1589 -1355 -19 -26 c-414 -578 -1584 -2187
-1591 -2187 -5 0 -291 425 -636 945 -344 520 -630 949 -634 953 -4 5 -406
-277 -891 -627 -486 -350 -887 -636 -890 -636 -4 0 -773 931 -1709 2070 -936
1138 -1705 2072 -1708 2074 -10 5 -1882 -1737 -1904 -1773 -11 -17 -22 -57
-25 -90 -5 -54 -3 -63 21 -91 34 -41 43 -77 24 -96 -8 -8 -42 -19 -75 -24 -33
-4 -86 -15 -119 -24 -113 -29 -190 -46 -215 -46 -34 0 -184 -52 -234 -80 -22
-13 -68 -44 -103 -69 l-62 -46 -124 -246 -125 -246 -495 -376 c-273 -208 -498
-377 -502 -377 -3 0 -408 250 -900 555 -491 305 -896 555 -898 555 -3 0 -552
-444 -1221 -986 -669 -542 -1220 -984 -1225 -982 -5 2 -300 404 -655 893 -356
490 -663 911 -681 937 l-34 46 1602 1367 1603 1367 2375 -6 c1306 -3 3837 -9
5624 -12z m-1665 -380 c22 -13 299 -422 317 -467 2 -7 -108 -138 -246 -292
-277 -309 -315 -362 -311 -436 3 -54 -11 -81 -72 -145 -38 -41 -39 -42 -23
-72 9 -17 16 -40 16 -50 0 -11 7 -25 16 -33 19 -15 12 -62 -18 -129 -12 -26
-26 -92 -34 -159 l-14 -114 34 -41 c41 -50 76 -114 76 -139 0 -52 -86 -139
-150 -152 -19 -3 -62 -15 -96 -26 -72 -23 -132 -79 -163 -152 -20 -47 -21 -51
-4 -97 16 -46 19 -48 64 -54 46 -6 46 -7 74 -72 25 -58 27 -69 16 -103 -16
-54 -14 -131 5 -182 9 -26 17 -80 17 -129 2 -75 -1 -91 -26 -137 -29 -55 -36
-127 -17 -164 6 -10 24 -26 40 -34 16 -8 45 -39 63 -68 58 -88 107 -134 152
-142 93 -15 186 -57 248 -111 39 -36 68 -54 86 -54 14 0 55 -11 90 -23 58 -20
65 -26 77 -60 8 -21 27 -55 43 -76 16 -20 33 -49 36 -64 6 -22 15 -28 61 -38
30 -7 54 -14 54 -16 0 -10 -246 -290 -345 -393 -61 -63 -130 -140 -155 -170
-24 -30 -85 -98 -135 -150 -50 -52 -129 -142 -175 -199 -46 -58 -118 -141
-159 -186 -42 -46 -112 -123 -156 -173 l-79 -91 -36 21 c-19 11 -334 197 -700
412 -938 553 -1821 1130 -2192 1432 l-27 22 419 362 c392 338 514 439 583 483
31 20 49 54 72 139 27 95 213 317 295 350 14 6 42 19 62 30 20 10 92 35 160
54 404 115 392 111 468 181 121 112 134 178 51 264 l-40 42 21 36 c56 92 151
202 281 325 250 236 1342 1256 1345 1256 2 0 16 -7 31 -16z m-6099 -3094
l-281 -562 158 6 c87 4 180 9 207 13 45 5 48 4 42 -13 -4 -11 -102 -192 -218
-403 l-210 -383 -20 -151 -20 -150 37 -171 c21 -94 38 -175 39 -180 0 -5 -48
-23 -108 -40 l-109 -31 -50 -118 -50 -119 67 -67 c36 -36 66 -70 66 -74 0 -11
-340 -427 -348 -426 -8 0 -1150 1571 -1157 1591 -4 12 2224 1853 2232 1844 2
-2 -122 -257 -277 -566z m11187 153 c-3 -5 -44 -108 -92 -231 l-87 -223 7
-137 c4 -75 11 -146 15 -157 4 -11 26 -33 49 -50 22 -16 40 -35 38 -41 -1 -7
-156 -193 -345 -414 l-343 -401 25 -32 c14 -18 40 -50 59 -71 l34 -40 -100
-159 c-81 -129 -102 -156 -112 -145 -7 7 -169 231 -360 496 -293 409 -345 486
-334 497 15 15 1542 1115 1547 1115 2 0 1 -3 -1 -7z"/>
</g>
</svg>
