<?xml version="1.0" standalone="no"?>
<!DOCTYPE svg PUBLIC "-//W3C//DTD SVG 20010904//EN"
 "http://www.w3.org/TR/2001/REC-SVG-20010904/DTD/svg10.dtd">
<svg version="1.0" xmlns="http://www.w3.org/2000/svg"
 width="512.000000pt" height="512.000000pt" viewBox="0 0 512.000000 512.000000"
 preserveAspectRatio="xMidYMid meet">
<metadata>
Created by potrace 1.14, written by Peter Selinger 2001-2017
</metadata>
<g transform="translate(0.000000,512.000000) scale(0.100000,-0.100000)"
fill="#000000" stroke="none">
<path d="M1599 4088 c0 -13 -1 -301 0 -641 0 -431 3 -622 11 -632 6 -7 10 -37
10 -66 -1 -98 8 -118 75 -155 78 -43 84 -58 52 -127 -30 -66 -37 -97 -41 -174
-3 -57 -16 -94 -42 -121 -61 -61 -102 -132 -109 -188 -3 -31 29 -116 51 -135
8 -6 18 -28 24 -49 8 -31 6 -45 -11 -85 -20 -46 -21 -62 -21 -429 1 -209 1
-395 1 -412 l1 -32 987 2 988 1 0 623 0 623 -28 27 c-16 15 -37 41 -48 58 -23
38 -50 47 -78 28 -14 -10 -19 -23 -16 -44 2 -16 -2 -33 -8 -38 -15 -12 -92
-24 -170 -27 -44 -1 -63 -7 -82 -25 -20 -18 -34 -22 -80 -21 -57 1 -100 -13
-90 -29 3 -4 -3 -6 -13 -3 -20 5 -57 72 -67 121 -5 22 -16 37 -36 47 -16 9
-31 15 -34 15 -22 -3 -36 22 -39 68 -3 41 -9 58 -31 79 -40 41 -85 124 -85
159 0 19 -9 38 -22 51 -29 26 -68 46 -68 35 0 -19 -87 -103 -102 -97 -13 5
-58 97 -58 120 0 5 12 18 26 30 22 18 24 23 15 48 -15 38 -15 220 -1 281 15
68 9 78 -39 70 -34 -5 -40 -3 -46 15 -3 12 -18 23 -33 27 -47 10 -52 13 -52
32 0 21 -80 112 -98 112 -10 0 -16 14 -10 23 1 1 -4 13 -11 25 -10 18 -18 22
-37 18 -13 -4 -33 -2 -44 4 -31 16 -67 90 -74 148 -7 56 -37 127 -66 152 -37
33 -40 55 -40 284 l0 226 -155 0 c-154 0 -155 0 -156 -22z"/>
<path d="M1450 3269 c-14 -12 -97 -80 -185 -152 -87 -73 -216 -178 -285 -235
-69 -57 -134 -111 -145 -120 -11 -10 -67 -55 -125 -102 -58 -47 -111 -90 -118
-97 -7 -7 -58 -49 -112 -94 -55 -45 -100 -85 -100 -89 0 -3 161 -139 357 -301
196 -162 411 -339 477 -394 67 -55 130 -107 140 -115 18 -15 75 -61 107 -87
15 -13 16 -2 15 130 l-1 144 -75 62 c-41 35 -95 80 -120 100 -57 48 -351 292
-409 340 -85 70 -136 114 -139 121 -3 7 16 22 393 330 264 216 283 232 321
266 l31 29 1 143 c0 78 -1 142 -1 142 -1 -1 -13 -10 -27 -21z"/>
<path d="M3721 3147 l-1 -143 187 -154 c103 -85 253 -209 333 -275 80 -66 164
-136 188 -154 23 -19 42 -38 42 -41 0 -4 -60 -56 -132 -116 -73 -59 -135 -111
-138 -114 -3 -3 -51 -42 -108 -88 -56 -45 -112 -91 -125 -101 -12 -11 -72 -60
-133 -110 l-111 -90 -2 -146 -1 -146 102 82 c57 46 114 93 128 105 14 12 70
59 125 105 130 107 195 160 220 181 11 9 128 105 260 214 302 248 276 221 245
246 -14 11 -45 37 -70 58 -25 21 -166 138 -315 260 -148 122 -279 229 -290
238 -11 10 -58 49 -105 87 -47 38 -90 74 -96 80 -6 5 -28 24 -49 40 -21 17
-43 35 -49 40 -6 6 -32 27 -58 47 l-46 38 -1 -143z"/>
</g>
</svg>
